<?xml version="1.0" encoding="UTF-8" standalone="no"?>
<!-- Created with Inkscape (http://www.inkscape.org/) -->

<svg
   width="100mm"
   height="100mm"
   viewBox="0 0 100 100"
   version="1.1"
   id="svg1"
   inkscape:version="1.4.2 (ebf0e940d0, 2025-05-08)"
   sodipodi:docname="password-show.svg"
   xmlns:inkscape="http://www.inkscape.org/namespaces/inkscape"
   xmlns:sodipodi="http://sodipodi.sourceforge.net/DTD/sodipodi-0.dtd"
   xmlns="http://www.w3.org/2000/svg"
   xmlns:svg="http://www.w3.org/2000/svg">
  <sodipodi:namedview
     id="namedview1"
     pagecolor="#ffffff"
     bordercolor="#cccccc"
     borderopacity="1"
     inkscape:showpageshadow="0"
     inkscape:pageopacity="1"
     inkscape:pagecheckerboard="0"
     inkscape:deskcolor="#d1d1d1"
     inkscape:document-units="mm"
     inkscape:zoom="2.8044052"
     inkscape:cx="204.3214"
     inkscape:cy="192.37591"
     inkscape:window-width="1896"
     inkscape:window-height="996"
     inkscape:window-x="0"
     inkscape:window-y="0"
     inkscape:window-maximized="1"
     inkscape:current-layer="layer1" />
  <defs
     id="defs1" />
  <g
     inkscape:label="Layer 1"
     inkscape:groupmode="layer"
     id="layer1">
    <circle
       style="fill:#1a1a1a;fill-opacity:0;stroke:#1a1a1a;stroke-width:0.5;stroke-dasharray:none"
       id="path1"
       cx="50"
       cy="50"
       r="10" />
    <path
       id="path2"
       style="fill:#1a1a1a;fill-opacity:1;stroke:#1a1a1a;stroke-width:0.5;stroke-dasharray:none"
       d="M 50.000049 44.796232 A 4.870007 5.2035689 0 0 0 45.130062 50.000049 A 4.870007 5.2035689 0 0 0 50.000049 55.203349 A 4.870007 5.2035689 0 0 0 54.870036 50.000049 A 4.870007 5.2035689 0 0 0 54.785803 49.03525 A 2.5 2.5 0 0 1 53.159546 49.636247 A 2.5 2.5 0 0 1 50.659957 47.136141 A 2.5 2.5 0 0 1 51.684701 45.11766 A 4.870007 5.2035689 0 0 0 50.000049 44.796232 z " />
    <path
       style="fill:#1a1a1a;fill-opacity:0;stroke:#1a1a1a;stroke-width:0.5;stroke-dasharray:none;stroke-linecap:round"
       id="path4"
       sodipodi:type="arc"
       sodipodi:cx="50"
       sodipodi:cy="29.999792"
       sodipodi:rx="50"
       sodipodi:ry="30"
       sodipodi:start="0.73303829"
       sodipodi:end="2.4085544"
       sodipodi:arc-type="arc"
       d="M 87.157241,50.07371 A 50,30 0 0 1 50,59.999792 50,30 0 0 1 12.842758,50.07371"
       sodipodi:open="true" />
    <path
       style="fill:#1a1a1a;fill-opacity:0;stroke:#1a1a1a;stroke-width:0.5;stroke-dasharray:none;stroke-linecap:round;stroke-linejoin:miter"
       id="path4-3"
       sodipodi:type="arc"
       sodipodi:cx="50"
       sodipodi:cy="70.000206"
       sodipodi:rx="50"
       sodipodi:ry="30"
       sodipodi:start="3.8746309"
       sodipodi:end="5.550147"
       sodipodi:arc-type="arc"
       d="M 12.842757,49.926289 A 50,30 0 0 1 50,40.000206 50,30 0 0 1 87.157241,49.926287"
       sodipodi:open="true" />
  </g>
</svg>
